<?xml version="1.0" encoding="UTF-8" standalone="no"?>
<svg
    xmlns:osb="http://www.openswatchbook.org/uri/2009/osb"
    xmlns:dc="http://purl.org/dc/elements/1.1/"
    xmlns:cc="http://creativecommons.org/ns#"
    xmlns:rdf="http://www.w3.org/1999/02/22-rdf-syntax-ns#"
    xmlns:svg="http://www.w3.org/2000/svg"
    xmlns="http://www.w3.org/2000/svg"
    xmlns:sodipodi="http://sodipodi.sourceforge.net/DTD/sodipodi-0.dtd"
    xmlns:inkscape="http://www.inkscape.org/namespaces/inkscape"
    viewBox="0 0 1652.4702 1220.6385"
    x="0px"
    y="0px"
    width="1652.4702"
    height="1220.6384"
    xml:space="preserve"
    enable-background="new 0 0 1576 1102"
    version="1.1"
    id="svg3667"
    inkscape:version="0.48.0 r9654"
    sodipodi:docname="Commonwealth of Nations.svg"><metadata
   id="metadata4347"><rdf:RDF><cc:Work
       rdf:about=""><dc:format>image/svg+xml</dc:format><dc:type
         rdf:resource="http://purl.org/dc/dcmitype/StillImage" /><dc:title></dc:title></cc:Work></rdf:RDF></metadata><sodipodi:namedview
   pagecolor="#ffffff"
   bordercolor="#666666"
   borderopacity="1"
   objecttolerance="10"
   gridtolerance="10"
   guidetolerance="10"
   inkscape:pageopacity="0"
   inkscape:pageshadow="2"
   inkscape:window-width="1920"
   inkscape:window-height="1018"
   id="namedview4345"
   showgrid="false"
   inkscape:zoom="0.52813065"
   inkscape:cx="866.36657"
   inkscape:cy="679.3062"
   inkscape:window-x="-8"
   inkscape:window-y="32"
   inkscape:window-maximized="1"
   inkscape:current-layer="svg3667"
   fit-margin-top="0"
   fit-margin-left="0"
   fit-margin-right="0"
   fit-margin-bottom="0" /><defs
   id="defs3669"><linearGradient
     id="linearGradient6856"
     osb:paint="solid"><stop
       style="stop-color:#000000;stop-opacity:1;"
       offset="0"
       id="stop6858" /></linearGradient></defs><path
   d="m 1374.8072,555.33743 c -0.583,-0.917 -1.334,-3.333 -1.167,-3.833 0.167,-0.5 1.917,-3.75 1.833,-4.167 -0.084,-0.417 -1.417,-2.417 -1.5,-2.833 -0.083,-0.416 0.667,-1.583 0.667,-1.583 l -1.5,-0.25 c 0,0 2.083,-1.334 2.333,-1.667 0.25,-0.333 -0.75,-2.167 -0.75,-2.167 l 0.417,-2.083 2.083,-0.417 1.5,0.167 c 0,0 2,-1.75 2.25,-2.083 0.25,-0.333 0.5,-1.917 0.5,-1.917 0,0 2.75,3.5 3.417,4.583 0.667,1.083 2.25,3.833 2.167,4.583 -0.083,0.75 -0.167,4.75 -0.167,4.75 l 0.917,-0.167 c 0,0 -0.667,2.417 -1,2.917 -0.333,0.5 -3.334,2.583 -3.917,2.917 -0.583,0.334 -2.667,0.333 -2.667,0.333 l -2.083,0.667 0.167,1.333 -1.583,-0.25 -1.917,1.167 z"
   id="path3671"
   inkscape:connector-curvature="0"
   style="fill:#b9b9b9;stroke:#ffffff;fill-opacity:1" /><path
   d="m 1381.4742,532.50443 c 0,0 -1.167,-2.917 -1.583,-2.917 -0.416,0 -1.583,-0.75 -1.583,-0.75 l 0.667,-1.417 0.25,-1.917 c 0,0 4.083,-2.417 4.667,-3 0.584,-0.583 4.167,-2.5 4.167,-2.5 l 0.5,-3.417 -0.333,-1 2.167,-3.583 2,-0.917 -1.583,-1.667 -0.667,-1.833 -2,0.333 0.417,1.917 c 0,0 -1.333,1.166 -1.833,1.583 -0.5,0.417 -2.083,2.25 -2.333,2.167 -0.25,-0.083 -2.833,-0.417 -2.833,-0.417 0,0 1.416,1.917 1.083,2.333 -0.333,0.416 -3.083,0 -3.083,0 0,0 -1.667,-0.167 -1.833,-0.583 -0.166,-0.416 -1.167,-1.167 -1.167,-1.167 0,0 -0.833,1.583 -1.333,2.333 -0.5,0.75 -2.083,2.333 -4.083,3.5 -2,1.167 -4.083,3 -4.083,3 l -1.75,2.5 0.667,1 3,0.667 1.167,1.333 -0.083,1.75 c 0,0 -0.084,1.25 -0.667,2 -0.583,0.75 -2.25,2.833 -2.25,2.833 0,0 0.25,0.417 0.917,0.667 0.667,0.25 1,0.833 1,0.833 0,0 0.416,1 0.833,0.917 0.417,-0.083 1.417,-1 1.417,-1 0,0 1.167,0.833 1.667,1 0.5,0.167 1.667,0.417 1.667,0.417 l 0.667,-1 c 0,0 2.5,0 3.083,0 0.583,0 2.333,-1.667 2.333,-1.667 l 0.744,-2.331 z"
   id="path3675"
   inkscape:connector-curvature="0"
   style="fill:#b9b9b9;stroke:#ffffff;fill-opacity:1" />
    <!-- SVG content truncated for brevity -->
</svg>